<?xml version="1.0" ?><svg data-name="Layer 1"  id="Layer_1" viewBox="0 0 512 512" width="150px" height="150px" xmlns="http://www.w3.org/2000/svg"><title/><path d="M429.23,326.7H388l.95-1.05c15.76-17.51,24.89-39.52,25.72-62,0-1.18.06-2.35.06-3.5v-80c0-15.47-9.63-32.54-21.78-40.69a55.34,55.34,0,1,0-56.55,0c-14.17,8.9-21.74,26.41-21.74,40.71v24.1l-62.07,57.38a23.71,23.71,0,0,0-3.34,3.85,24.14,24.14,0,0,0-3.33-3.85L183.8,204.24v-24.1c0-14.3-7.58-31.81-21.75-40.71a55.34,55.34,0,1,0-56.55,0c-12.15,8.15-21.78,25.22-21.78,40.69v80c0,1.15,0,2.32.06,3.5.83,22.48,10,44.49,25.72,62l1.15,1.27a34.91,34.91,0,0,1,9,23.37V471a4.35,4.35,0,0,0,8.7,0V350.29a43.53,43.53,0,0,0-11.21-29.19L116,319.83c-14.4-16-22.74-36.06-23.49-56.5q-.06-1.62-.06-3.18v-80c0-16,12.39-32.38,23-36a54.35,54.35,0,0,0,36.58,0c14.46,5.33,23.07,22.29,23.07,36V196.2l-26.31-24.33a4.36,4.36,0,0,0-5.91,6.4L240,268a15.24,15.24,0,0,1,.84,21.52,15.22,15.22,0,0,1-21.52.84l-97.09-89.74a4.35,4.35,0,1,0-5.9,6.39l58.8,54.36V471a4.36,4.36,0,0,0,8.71,0V269.42l29.58,27.35a23.94,23.94,0,0,0,33.81-1.33,24.21,24.21,0,0,0,2-2.67,22.55,22.55,0,0,0,19.59,10.35A23.84,23.84,0,0,0,285,296.76l29.58-27.34V326.7H301.14a4.35,4.35,0,0,0-4.35,4.35V435.84a4.35,4.35,0,0,0,4.35,4.35h13.47V471a4.35,4.35,0,0,0,8.7,0V440.19h46.77V471a4.36,4.36,0,0,0,8.71,0V440.19h50.44a4.35,4.35,0,0,0,4.35-4.35V331.05A4.35,4.35,0,0,0,429.23,326.7ZM87.12,92a46.64,46.64,0,1,1,46.64,46.64A46.69,46.69,0,0,1,87.12,92ZM318,92a46.64,46.64,0,1,1,46.64,46.64A46.69,46.69,0,0,1,318,92ZM279.12,290.37a15.58,15.58,0,0,1-21.52-.84,15.25,15.25,0,0,1,.84-21.52l56.17-51.92v41.48Zm44.19-110.23c0-13.72,8.62-30.68,23.07-36a54.35,54.35,0,0,0,36.58,0c10.63,3.65,23,20.07,23,36v80q0,1.56-.06,3.18A89.08,89.08,0,0,1,387.23,314a21.55,21.55,0,0,0,.26-2.56v-133a4.35,4.35,0,0,0-8.7,0v133a13.6,13.6,0,1,1-27.2,0v-133a4.35,4.35,0,1,0-8.7,0v133A22.14,22.14,0,0,0,349,326.7H323.31ZM424.88,335.4v38.2H400.83v-7.84a4.35,4.35,0,0,0-8.7,0v7.84H338.25v-7.84a4.35,4.35,0,0,0-8.7,0v7.84H305.49V335.4Zm0,96.09H305.49V382.3h24.06v9.81a4.35,4.35,0,1,0,8.7,0V382.3h53.88v9.81a4.35,4.35,0,1,0,8.7,0V382.3h24.05v49.19Z" fill="#343434"/></svg>